# xmcd CD database file
#
# Track frame offsets:
#	150
#	19519
#	41210
#	60616
#	82506
#	108325
#	124142
#	141199
#
# Disc length: 2162 seconds
#
# Revision: 0
# Processed by: cddbd v1.4PL0 Copyright (c) Steve Scherf et al.
# Submitted via: CdAid 2001.05.15.01
#
DISCID=5f087008
DTITLE=May, Wendy - Matter of Perception
DYEAR=1900
DGENRE=
TTITLE0=Roll Me Down The River
TTITLE1=Honky Tonk Stomp
TTITLE2=Picture Me
TTITLE3=It Don't Bother Me
TTITLE4=One More Bottle's Empty
TTITLE5=When We Do What We Do
TTITLE6=Love Stole Me Away
TTITLE7=The Man In My Life...(For my son DYLAN)
EXTD=
EXTT0=
EXTT1=
EXTT2=
EXTT3=
EXTT4=
EXTT5=
EXTT6=
EXTT7=
PLAYORDER=
